<svg width="26" height="26" viewBox="0 0 26 26" fill="none" xmlns="http://www.w3.org/2000/svg">
<path d="M23.75 17.5H6.25C5.91848 17.5 5.60054 17.3683 5.36612 17.1339C5.1317 16.8995 5 16.5815 5 16.25C5 15.9185 5.1317 15.6005 5.36612 15.3661C5.60054 15.1317 5.91848 15 6.25 15H19.3C20.1358 15 20.9477 14.7209 21.6067 14.2068C22.2657 13.6927 22.7341 12.9732 22.9375 12.1625L25 4.05C25.0468 3.86551 25.0509 3.67277 25.0119 3.48646C24.9729 3.30016 24.8919 3.12523 24.775 2.975C24.6534 2.82092 24.4973 2.69762 24.3192 2.6151C24.1411 2.53258 23.9461 2.49315 23.75 2.5H5.95C5.69211 1.77056 5.21491 1.13875 4.58383 0.691173C3.95275 0.243598 3.19868 0.00217439 2.425 0H1.25C0.918479 0 0.600537 0.131696 0.366116 0.366116C0.131696 0.600537 0 0.918479 0 1.25C0 1.58152 0.131696 1.89946 0.366116 2.13388C0.600537 2.3683 0.918479 2.5 1.25 2.5H2.425C2.71054 2.49168 2.99032 2.58142 3.21776 2.75427C3.44519 2.92712 3.60656 3.17266 3.675 3.45L3.75 4.05L5.9125 12.5C4.91794 12.5448 3.98189 12.9828 3.31028 13.7177C2.63866 14.4526 2.28649 15.4242 2.33125 16.4188C2.37601 17.4133 2.81402 18.3494 3.54892 19.021C4.28383 19.6926 5.25544 20.0448 6.25 20H6.475C6.26942 20.5664 6.20336 21.174 6.28241 21.7714C6.36147 22.3687 6.58331 22.9383 6.92915 23.4317C7.27499 23.9251 7.73464 24.328 8.26919 24.6061C8.80374 24.8842 9.39743 25.0294 10 25.0294C10.6026 25.0294 11.1963 24.8842 11.7308 24.6061C12.2654 24.328 12.725 23.9251 13.0709 23.4317C13.4167 22.9383 13.6385 22.3687 13.7176 21.7714C13.7966 21.174 13.7306 20.5664 13.525 20H16.475C16.2694 20.5664 16.2034 21.174 16.2824 21.7714C16.3615 22.3687 16.5833 22.9383 16.9291 23.4317C17.275 23.9251 17.7346 24.328 18.2692 24.6061C18.8037 24.8842 19.3974 25.0294 20 25.0294C20.6026 25.0294 21.1963 24.8842 21.7308 24.6061C22.2654 24.328 22.725 23.9251 23.0709 23.4317C23.4167 22.9383 23.6385 22.3687 23.7176 21.7714C23.7966 21.174 23.7306 20.5664 23.525 20H23.75C24.0815 20 24.3995 19.8683 24.6339 19.6339C24.8683 19.3995 25 19.0815 25 18.75C25 18.4185 24.8683 18.1005 24.6339 17.8661C24.3995 17.6317 24.0815 17.5 23.75 17.5ZM22.15 5L20.5125 11.55C20.4441 11.8273 20.2827 12.0729 20.0553 12.2457C19.8278 12.4186 19.548 12.5083 19.2625 12.5H8.475L6.6 5H22.15ZM10 22.5C9.75277 22.5 9.5111 22.4267 9.30554 22.2893C9.09997 22.152 8.93976 21.9568 8.84515 21.7284C8.75054 21.4999 8.72579 21.2486 8.77402 21.0061C8.82225 20.7637 8.9413 20.5409 9.11612 20.3661C9.29093 20.1913 9.51366 20.0723 9.75614 20.024C9.99861 19.9758 10.2499 20.0005 10.4784 20.0952C10.7068 20.1898 10.902 20.35 11.0393 20.5555C11.1767 20.7611 11.25 21.0028 11.25 21.25C11.25 21.5815 11.1183 21.8995 10.8839 22.1339C10.6495 22.3683 10.3315 22.5 10 22.5ZM20 22.5C19.7528 22.5 19.5111 22.4267 19.3055 22.2893C19.1 22.152 18.9398 21.9568 18.8451 21.7284C18.7505 21.4999 18.7258 21.2486 18.774 21.0061C18.8222 20.7637 18.9413 20.5409 19.1161 20.3661C19.2909 20.1913 19.5137 20.0723 19.7561 20.024C19.9986 19.9758 20.2499 20.0005 20.4784 20.0952C20.7068 20.1898 20.902 20.35 21.0393 20.5555C21.1767 20.7611 21.25 21.0028 21.25 21.25C21.25 21.5815 21.1183 21.8995 20.8839 22.1339C20.6495 22.3683 20.3315 22.5 20 22.5Z" fill="#CDCDCD"/>
</svg>
